# xmcd
#
# Track frame offsets:
#	150
#	18469
#	35186
#	51159
#	72106
#	83144
#	98394
#	121524
#	137974
#	157529
#	178925
#	200327
#
# Disc length: 2846 seconds
#
# Revision: 1
# Processed by: cddbd v1.5.2PL0 Copyright (c) Steve Scherf et al.
# Submitted via: audiograbber 1.83.01
#
DISCID=940b1c0c
DTITLE=The Grahams - Glory Bound
DYEAR=2015
DGENRE=
TTITLE0=Glory Bound
TTITLE1=Gambling Girl
TTITLE2=Blow Wind Blow
TTITLE3=Lay Me Down
TTITLE4=Kansas City
TTITLE5=Mama
TTITLE6=The Wild One
TTITLE7=Griggstown
TTITLE8=Biscuits
TTITLE9=Broder Land
TTITLE10=The Spinner
TTITLE11=Promised Land
EXTD=
EXTT0=
EXTT1=
EXTT2=
EXTT3=
EXTT4=
EXTT5=
EXTT6=
EXTT7=
EXTT8=
EXTT9=
EXTT10=
EXTT11=
PLAYORDER=
